<svg width="130" height="68" viewBox="0 0 130 68" fill="none" xmlns="http://www.w3.org/2000/svg">
<g clip-path="url(#clip0_6731_2438)">
<path d="M39.2748 16.8872H40.7973L40.0056 14.8605L39.2748 16.8872ZM37.6914 18.8525L39.9447 13.5094H40.5537L42.807 18.8525H41.6499L41.1627 17.5014H39.153L38.6049 18.8525H37.6914ZM42.9897 18.6068L42.9288 17.6242C43.416 18.0541 43.9642 18.2998 44.5123 18.2998C44.8168 18.2998 45.0604 18.2383 45.2431 18.1155C45.5476 17.8699 45.5476 17.4399 45.304 17.1943C45.1213 16.9486 44.7559 16.8258 43.9641 16.4573C43.2333 16.0888 42.8679 15.5975 42.8679 14.9219C42.8679 14.492 43.0506 14.1235 43.3551 13.8164C44.025 13.2023 45.1822 13.4479 45.304 13.4479C45.5476 13.5094 45.7303 13.5708 45.913 13.6322L45.9739 14.5534C45.7303 14.3692 45.4867 14.2463 45.304 14.1849C44.5732 13.9393 43.7814 14.1235 43.7814 14.7377C43.7814 15.0447 43.9641 15.229 44.3905 15.4747C45.304 15.966 45.7912 16.1502 46.0957 16.5801C46.522 17.0715 46.522 18.1155 45.8521 18.6068C45.4867 18.8525 45.0604 19.0367 44.4513 19.0367C43.7814 18.9753 43.2333 18.7297 42.9897 18.6068ZM48.0445 18.8525V14.1235C47.6182 14.1235 47.131 14.1849 46.4611 14.2463L46.522 13.4479H50.6023L50.6632 14.2463C49.8106 14.1235 49.3234 14.1235 49.0798 14.1235V18.7911H48.0445V18.8525ZM53.3428 18.2998C54.1954 18.2998 54.9262 17.6242 54.9262 16.1502C54.9262 16.0274 54.9262 14.8605 54.1954 14.2463C53.9518 14.0621 53.7082 14.0007 53.3428 14.0007C52.2466 14.0007 51.7594 15.0447 51.7594 16.1502C51.8203 17.6242 52.5511 18.2998 53.3428 18.2998ZM53.3428 18.9753C51.7594 18.9753 50.6632 17.8084 50.6632 16.2116C50.6632 14.5534 51.7594 13.4479 53.3428 13.4479C54.9262 13.4479 56.0224 14.5534 56.0224 16.2116C56.0224 17.8084 54.9262 18.9753 53.3428 18.9753ZM56.875 18.8525V13.5094H57.4231L60.59 17.1329V13.5094H61.3208V18.8525H60.7727L57.6058 15.229V18.8525H56.875ZM64.1831 18.8525L64.7921 13.5094H65.3402L67.2281 17.2557L69.0551 13.5094H69.6032L70.2122 18.8525H69.116L68.8115 15.5361L67.3499 18.6068H66.8627L65.3402 15.5361L65.0357 18.7911H64.1831V18.8525ZM72.161 16.8872H73.6835L72.8918 14.8605L72.161 16.8872ZM70.5776 18.8525L72.8309 13.5094H73.4399L75.6933 18.8525H74.5362L74.0489 17.5014H72.0392L71.4911 18.8525H70.5776ZM77.094 15.9046C77.2158 15.9046 77.3985 15.966 77.5203 15.966C78.3729 15.966 78.6165 15.4747 78.6165 15.0447C78.6165 14.3692 78.1293 14.1235 77.5203 14.1235C77.3985 14.1235 77.2767 14.1235 77.1549 14.1235V15.9046H77.094ZM76.1196 18.8525V13.5708C76.4241 13.5094 76.7895 13.5094 77.3376 13.5094C77.8248 13.5094 78.2511 13.5708 78.5556 13.6936C79.0428 13.8778 79.6518 14.2463 79.6518 15.0447C79.6518 15.3518 79.53 15.6589 79.3473 15.966C79.1646 16.2116 78.8601 16.3959 78.4947 16.5187L80.3826 18.9139H79.1646L77.5203 16.6415H77.1549V18.9139H76.1196V18.8525ZM81.6006 18.8525V14.1235C81.1743 14.1235 80.6871 14.1849 80.0172 14.2463L80.0781 13.4479H84.1584L84.2193 14.2463C83.3667 14.1235 82.8795 14.1235 82.6359 14.1235V18.7911H81.6006V18.8525ZM84.8892 13.5094H85.9245V18.8525H84.8892V13.5094ZM86.9598 18.8525V13.5094H87.5079L90.6748 17.1329V13.5094H91.4056V18.8525H90.8575L87.6906 15.229V18.8525H86.9598Z" fill="#7D7E7E"/>
<path d="M129.227 7.24437C128.862 6.63021 128.192 6.26172 127.4 6.26172H75.2083C74.3557 6.26172 73.0159 6.26172 71.6152 7.67427C71.1889 8.10418 70.8844 8.59551 70.7017 8.964C70.2754 9.7624 69.9709 10.3151 68.5093 10.3151H60.8967C59.496 10.3151 59.1306 9.7624 58.7043 8.964C58.4607 8.53409 58.2171 8.10418 57.7908 7.67427C56.3901 6.26172 55.0503 6.26172 54.1977 6.26172H2.06694C1.21434 6.26172 0.544432 6.63021 0.23993 7.24437C-0.125472 7.85852 -0.0645716 8.65692 0.361731 9.33249L1.27524 10.9293C1.76244 11.7891 2.43235 11.9119 2.91955 12.0348C3.34585 12.0962 3.65035 12.1576 3.95486 12.7718L4.80746 14.2457C5.47736 15.474 6.20817 15.5969 6.75627 15.7197C7.18258 15.7811 7.60888 15.8425 8.15698 16.8252C8.70509 17.8078 9.49679 19.2818 11.5065 19.896C11.6892 19.9574 30.9337 25.6076 30.9946 25.6076C33.0043 26.2832 33.5524 27.0202 34.1615 27.9414C34.5269 28.4941 35.5622 29.9681 37.9982 30.6437L56.5119 35.6797C58.5216 36.2325 59.7396 35.2498 60.3486 34.6971L63.6981 31.5035C64.1854 31.0736 64.429 30.8893 64.7335 30.8893C65.038 30.8893 65.2816 31.0736 65.7688 31.5035L69.1183 34.6971C69.7273 35.1884 70.9453 36.1711 72.955 35.6797L91.4687 30.6437C93.9656 29.9681 94.94 28.4941 95.3054 27.9414C95.9145 27.0202 96.4626 26.2217 98.4723 25.6076C98.4723 25.6076 117.717 19.9574 117.96 19.896C119.909 19.2818 120.762 17.8078 121.31 16.8252C121.858 15.8425 122.223 15.7811 122.65 15.7197C123.198 15.5969 123.99 15.474 124.659 14.2457L125.512 12.7718C125.877 12.1576 126.121 12.0962 126.547 12.0348C127.035 11.9119 127.704 11.7891 128.192 10.9293L129.105 9.33249C129.531 8.59551 129.592 7.85852 129.227 7.24437ZM93.6002 11.5434V20.7558H35.8667V11.5434H93.6002ZM72.8941 34.3286C71.4934 34.3286 71.0062 33.1003 70.6408 32.1176C70.2145 31.0122 67.9612 23.7651 67.2913 21.7998H70.1536C71.6761 24.4407 74.4775 29.1083 75.6955 31.0736C75.9391 31.4421 76.5481 32.4861 77.6443 33.1617C73.2595 34.3286 73.3813 34.3286 72.8941 34.3286ZM79.654 32.4861C78.0706 32.4861 77.218 31.2578 76.7308 30.4594C75.6955 28.8012 73.3204 24.8092 71.5543 21.7998H74.7211C76.7308 23.9494 80.933 28.4327 82.5773 30.1523C82.8209 30.398 83.369 30.9507 84.1607 31.4421C80.263 32.4247 80.2631 32.4861 79.654 32.4861ZM86.1095 30.7051C84.8915 30.7051 83.978 29.8453 83.369 29.2311C81.9074 27.7571 78.436 24.0722 76.3045 21.7384H79.7758C81.9683 23.3966 87.023 27.143 89.0327 28.4941C89.3981 28.7398 90.1289 29.1697 90.9815 29.4768C86.4749 30.7051 86.5967 30.7051 86.1095 30.7051ZM94.2701 27.2658C93.722 28.1256 93.2957 28.5555 92.3213 28.5555C91.4078 28.5555 90.4943 28.1256 89.7026 27.5729C88.0583 26.406 84.2216 23.6423 81.7856 21.7998H85.9268C90.9815 24.3179 93.113 25.4848 94.5137 25.9147C94.7573 25.9761 95.001 26.0375 95.2446 26.0989C94.8183 26.406 94.5746 26.8359 94.2701 27.2658ZM95.7927 24.8706C94.6355 24.8706 93.113 24.0722 88.4846 21.7384H92.9912L99.3249 23.3352C99.7512 23.4581 100.177 23.5195 100.543 23.6423C96.9498 24.7478 96.4017 24.8706 95.7927 24.8706ZM108.095 21.4313C104.38 22.5368 103.771 22.7825 102.735 22.7825C102.004 22.7825 101.091 22.6596 99.5685 22.2297L94.5746 20.94V19.159L108.095 21.4313ZM111.992 20.3259C110.774 20.6329 109.678 20.5101 107.973 20.203L94.6964 17.9921V16.5795L116.438 19.0361L111.992 20.3259ZM120.153 16.211C119.97 16.5181 119.787 16.8252 119.605 17.0708C118.874 18.1149 118.387 18.0535 116.072 17.8078L94.5746 15.3512V14.0001L119.361 15.474C119.544 15.474 120.031 15.5355 120.579 15.5355C120.457 15.7197 120.275 15.9654 120.153 16.211ZM124.355 12.0962C124.355 12.0962 123.868 12.8946 123.685 13.3245C122.954 14.4914 122.589 14.4914 120.518 14.3071L94.6356 12.7718V11.6663H124.659C124.538 11.8505 124.477 11.9734 124.355 12.0962ZM128.07 8.65692L127.4 9.82382C126.913 10.5608 126.73 10.5608 125.147 10.5608H71.2498C71.7979 9.88523 71.9806 9.20966 72.5896 8.59551C73.6249 7.55144 74.4775 7.55144 75.2692 7.55144H127.461C127.826 7.55144 128.07 7.67427 128.192 7.85852C128.253 8.04277 128.253 8.34984 128.07 8.65692ZM59.2524 34.0215C59.496 33.7144 59.6787 33.2845 59.9832 32.5475C60.4095 31.4421 62.7846 23.888 63.4545 21.7998H66.0733C66.7432 23.9494 69.1183 31.4421 69.5446 32.5475C69.7882 33.2845 70.0318 33.7144 70.2754 34.0215C70.2145 33.9601 70.0927 33.8987 70.0318 33.8373L66.6823 30.6437C66.1342 30.1523 65.5861 29.661 64.7944 29.661C64.0027 29.661 63.3936 30.1523 62.9064 30.6437L59.5569 33.8373C59.4351 33.8987 59.3133 33.9601 59.2524 34.0215ZM51.8226 33.1003C52.9188 32.4247 53.5887 31.3807 53.7714 31.0122C54.9894 29.1083 57.7908 24.3793 59.3133 21.7384H62.1756C61.5666 23.7037 59.2524 30.9507 58.8261 32.0562C58.4607 33.0389 57.9735 34.2672 56.5728 34.2672C56.0856 34.3286 56.2074 34.3286 51.8226 33.1003ZM45.3671 31.3806C46.1588 30.9507 46.7069 30.398 46.9505 30.0909C48.5948 28.4327 52.8579 23.888 54.8067 21.7384H57.9735C56.2074 24.7478 53.8323 28.7398 52.797 30.398C52.3098 31.1964 51.4572 32.4247 49.8738 32.4247C49.2648 32.4861 49.2038 32.4247 45.3671 31.3806ZM38.5463 29.4768C39.3989 29.2311 40.1297 28.7398 40.4951 28.4941C42.5048 27.143 47.5595 23.3966 49.752 21.7384H53.2233C51.0918 24.0722 47.6204 27.7571 46.1588 29.2311C45.5498 29.8453 44.6972 30.7051 43.4183 30.7051C42.9311 30.7051 42.992 30.7051 38.5463 29.4768ZM34.2833 26.0375C34.5269 25.9761 34.7705 25.9761 35.0141 25.8533C36.4757 25.4233 38.6072 24.3179 43.601 21.7384H47.7422C45.2453 23.5809 41.4695 26.3446 39.8252 27.5115C39.0944 28.0642 38.12 28.4941 37.2065 28.4941C36.2321 28.4941 35.8058 28.0642 35.2577 27.2044C34.9532 26.8359 34.6487 26.406 34.2833 26.0375ZM28.9849 23.7037C29.3503 23.6423 29.7766 23.5195 30.2029 23.3966L36.5366 21.7998H41.0432C36.4148 24.1336 34.8923 24.932 33.7351 24.932C33.0652 24.8706 32.5171 24.7478 28.9849 23.7037ZM34.8923 19.159V20.94L29.8984 22.2297C28.3759 22.5982 27.4624 22.7825 26.7316 22.7825C25.6963 22.7825 25.0873 22.5368 21.3724 21.4313L34.8923 19.159ZM13.1508 19.0361L34.8923 16.5795V17.9921L21.616 20.203C19.8499 20.5101 18.7536 20.6329 17.5965 20.3259L13.1508 19.0361ZM8.88779 15.5355C9.37499 15.474 9.9231 15.474 10.1058 15.474L34.8923 14.0001V15.3512L13.3944 17.8078C11.0802 18.0535 10.593 18.1149 9.86219 17.0708C9.67949 16.8252 9.49679 16.5181 9.31409 16.211C9.19229 15.9654 9.07049 15.7197 8.88779 15.5355ZM4.86836 11.7277H34.8923V12.8332L9.00959 14.3686C6.93897 14.4914 6.57357 14.5528 5.84277 13.3859C5.59917 12.956 5.17286 12.1576 5.17286 12.1576C5.05106 11.9734 4.92926 11.8505 4.86836 11.7277ZM1.33614 7.85852C1.45794 7.67427 1.70154 7.55144 2.06694 7.55144H54.2586C55.0503 7.55144 55.9638 7.55144 56.9382 8.59551C57.5472 9.20966 57.7299 9.88523 58.278 10.5608H4.38116C2.79775 10.5608 2.61505 10.5608 2.12784 9.82382L1.45794 8.65692C1.27524 8.34984 1.21434 8.04277 1.33614 7.85852Z" fill="#7D7E7E"/>
<path d="M31.2205 54.3558C31.2205 53.7042 31.2146 53.0823 31.2027 52.49C31.1909 51.8858 31.1731 51.2935 31.1494 50.713C31.6707 50.6656 32.1919 50.63 32.7132 50.6064C33.2344 50.5827 33.7734 50.5708 34.3302 50.5708C35.8821 50.5708 37.2504 50.8255 38.435 51.3349C39.6315 51.8325 40.5674 52.561 41.2427 53.5206C41.9298 54.4683 42.2733 55.6234 42.2733 56.9857C42.2733 58.3125 41.9535 59.4557 41.3138 60.4153C40.674 61.363 39.7619 62.0916 38.5772 62.601C37.4044 63.1104 35.9947 63.3651 34.348 63.3651C33.7912 63.3651 33.2463 63.3532 32.7132 63.3295C32.1919 63.3059 31.6707 63.2703 31.1494 63.2229C31.1731 62.6306 31.1909 62.0383 31.2027 61.4459C31.2146 60.8536 31.2205 60.2317 31.2205 59.5801V54.3558ZM39.8922 57.0923C39.8922 55.9314 39.6671 54.9837 39.2169 54.2492C38.7667 53.5028 38.1448 52.952 37.3511 52.5966C36.5692 52.2293 35.6689 52.0457 34.6501 52.0457C34.271 52.0457 33.8741 52.0694 33.4595 52.1168V61.8191C33.8623 61.8665 34.271 61.8902 34.6856 61.8902C35.6926 61.8902 36.587 61.7303 37.3689 61.4104C38.1507 61.0905 38.7667 60.5811 39.2169 59.8822C39.6671 59.1714 39.8922 58.2415 39.8922 57.0923Z" fill="#7D7E7E"/>
<path d="M48.7969 63.525C47.7663 63.525 46.8719 63.3295 46.1137 62.9386C45.3674 62.5358 44.7869 61.9731 44.3722 61.2505C43.9695 60.516 43.7681 59.6571 43.7681 58.6739C43.7681 57.7143 43.9576 56.8732 44.3367 56.1505C44.7158 55.4161 45.243 54.8474 45.9182 54.4446C46.6053 54.03 47.405 53.8227 48.3171 53.8227C49.6913 53.8227 50.7161 54.2729 51.3913 55.1732C52.0666 56.0735 52.4042 57.3767 52.4042 59.0826H46.0426C46.1492 60.0658 46.475 60.8062 47.0199 61.3038C47.5767 61.7895 48.2934 62.0323 49.1701 62.0323C49.7269 62.0323 50.2422 61.9376 50.7161 61.748C51.1899 61.5585 51.6164 61.2979 51.9955 60.9662L51.7823 62.8675C51.3913 63.0808 50.9293 63.2407 50.3962 63.3473C49.875 63.4658 49.3419 63.525 48.7969 63.525ZM50.1119 57.7676C50.0645 56.9146 49.875 56.2749 49.5433 55.8485C49.2116 55.422 48.7614 55.2087 48.1928 55.2087C47.5767 55.2087 47.0792 55.4397 46.7001 55.9018C46.3328 56.3638 46.1137 56.9857 46.0426 57.7676H50.1119Z" fill="#7D7E7E"/>
<path d="M56.5378 63.525C55.6493 63.525 54.9444 63.3059 54.4232 62.8675C53.9019 62.4292 53.6413 61.831 53.6413 61.0728C53.6413 60.1487 54.0322 59.4202 54.8141 58.8871C55.6078 58.3421 56.7747 57.9394 58.3147 57.6787L59.3632 57.4833C59.3039 56.7014 59.1144 56.1446 58.7945 55.8129C58.4747 55.4694 57.9949 55.2976 57.3552 55.2976C56.8695 55.2976 56.3838 55.3924 55.8981 55.5819C55.4242 55.7714 54.8911 56.0558 54.2988 56.4349L54.4942 54.4624C54.9799 54.261 55.4834 54.107 56.0047 54.0004C56.5259 53.8819 57.059 53.8227 57.604 53.8227C58.8834 53.8227 59.8548 54.1485 60.5182 54.8C61.1935 55.4397 61.5311 56.3756 61.5311 57.6077V60.131C61.5311 60.7707 61.5548 61.3216 61.6022 61.7836C61.6614 62.2456 61.7621 62.755 61.9043 63.3118H59.9496C59.8785 63.0867 59.8074 62.8616 59.7363 62.6365C59.6771 62.3996 59.6179 62.1449 59.5586 61.8724H59.4876C58.8715 62.9741 57.8883 63.525 56.5378 63.525ZM58.7945 61.2327C59.1855 60.6878 59.3809 59.9533 59.3809 59.0292V58.7982L58.4569 58.9759C57.521 59.1418 56.8517 59.3728 56.4489 59.669C56.058 59.9533 55.8625 60.3205 55.8625 60.7707C55.8625 61.1853 55.9869 61.5052 56.2357 61.7303C56.4845 61.9435 56.8102 62.0501 57.213 62.0501C57.8764 62.0501 58.4036 61.7776 58.7945 61.2327Z" fill="#7D7E7E"/>
<path d="M63.9456 53.8227C63.9456 53.1001 63.9396 52.4722 63.9278 51.9391C63.9159 51.406 63.8982 50.8137 63.8745 50.1621H66.1846C66.1609 50.8137 66.1431 51.406 66.1312 51.9391C66.1194 52.4722 66.1135 53.1001 66.1135 53.8227V59.6512C66.1135 60.3738 66.1194 61.0017 66.1312 61.5348C66.1431 62.056 66.1609 62.6484 66.1846 63.3118H63.8745C63.8982 62.6484 63.9159 62.056 63.9278 61.5348C63.9396 61.0017 63.9456 60.3738 63.9456 59.6512V53.8227Z" fill="#7D7E7E"/>
<path d="M73.0569 63.525C72.0262 63.525 71.1318 63.3295 70.3737 62.9386C69.6273 62.5358 69.0468 61.9731 68.6322 61.2505C68.2294 60.516 68.028 59.6571 68.028 58.6739C68.028 57.7143 68.2176 56.8732 68.5967 56.1505C68.9758 55.4161 69.5029 54.8474 70.1782 54.4446C70.8653 54.03 71.6649 53.8227 72.5771 53.8227C73.9513 53.8227 74.976 54.2729 75.6513 55.1732C76.3265 56.0735 76.6642 57.3767 76.6642 59.0826H70.3026C70.4092 60.0658 70.735 60.8062 71.2799 61.3038C71.8367 61.7895 72.5534 62.0323 73.4301 62.0323C73.9869 62.0323 74.5022 61.9376 74.976 61.748C75.4499 61.5585 75.8764 61.2979 76.2555 60.9662L76.0422 62.8675C75.6513 63.0808 75.1893 63.2407 74.6562 63.3473C74.1349 63.4658 73.6018 63.525 73.0569 63.525ZM74.3719 57.7676C74.3245 56.9146 74.1349 56.2749 73.8032 55.8485C73.4715 55.422 73.0214 55.2087 72.4527 55.2087C71.8367 55.2087 71.3391 55.4397 70.9601 55.9018C70.5928 56.3638 70.3737 56.9857 70.3026 57.7676H74.3719Z" fill="#7D7E7E"/>
<path d="M84.5269 56.2038C84.0886 55.9432 83.6147 55.8129 83.1053 55.8129C82.3945 55.8129 81.8259 56.0498 81.3994 56.5237C80.9729 56.9976 80.7597 57.6195 80.7597 58.3895V59.6512C80.7597 60.3738 80.7656 61.0017 80.7775 61.5348C80.7893 62.056 80.8071 62.6484 80.8308 63.3118H78.5207C78.5444 62.6484 78.5622 62.056 78.574 61.5348C78.5859 61.0017 78.5918 60.3738 78.5918 59.6512V57.6965C78.5918 57.0331 78.5799 56.423 78.5562 55.8662C78.5444 55.2976 78.5207 54.6875 78.4852 54.0359H80.4043L80.6175 55.8129H80.7064C81.0144 55.185 81.4231 54.7053 81.9325 54.3736C82.4419 54.03 83.0224 53.8582 83.6739 53.8582C83.9109 53.8582 84.1241 53.876 84.3137 53.9115L84.5269 56.2038Z" fill="#7D7E7E"/>
<path d="M100.002 63.3118H97.2116C96.951 62.8379 96.7022 62.3937 96.4653 61.979C96.2284 61.5644 95.9737 61.1439 95.7012 60.7174C95.4406 60.2791 95.1385 59.7993 94.7949 59.278L94.1197 58.2474L93.5155 59.2425C93.1838 59.7993 92.8876 60.2909 92.627 60.7174C92.3782 61.1439 92.1413 61.5585 91.9162 61.9613C91.6911 62.3641 91.4424 62.8142 91.1699 63.3118H88.8598L93.1424 56.968L88.9664 50.6241H91.7385C92.165 51.406 92.5559 52.0931 92.9113 52.6854C93.2667 53.2659 93.6518 53.8701 94.0664 54.4979L94.5639 55.2798L95.2392 54.2847C95.6538 53.6805 96.0388 53.0823 96.3942 52.49C96.7615 51.8976 97.1346 51.2757 97.5137 50.6241H99.7527L95.5057 56.5592L100.002 63.3118Z" fill="#7D7E7E"/>
</g>
<defs>
<clipPath id="clip0_6731_2438">
<rect width="130" height="68" fill="white"/>
</clipPath>
</defs>
</svg>
