<svg width="123" height="54" viewBox="0 0 123 54" fill="none" xmlns="http://www.w3.org/2000/svg">
<path d="M37.0361 10.0195H38.4719L37.7253 8.10828L37.0361 10.0195ZM35.543 11.8728L37.6679 6.83414H38.2422L40.367 11.8728H39.2759L38.8165 10.5986H36.9213L36.4044 11.8728H35.543ZM40.5393 11.6411L40.4819 10.7145C40.9413 11.1199 41.4582 11.3515 41.9751 11.3515C42.2622 11.3515 42.4919 11.2936 42.6642 11.1778C42.9514 10.9461 42.9514 10.5407 42.7217 10.3091C42.5494 10.0774 42.2048 9.96157 41.4582 9.61407C40.7691 9.26658 40.4245 8.80326 40.4245 8.16619C40.4245 7.76079 40.5968 7.4133 40.8839 7.12372C41.5156 6.54457 42.6068 6.77623 42.7217 6.77623C42.9514 6.83414 43.1237 6.89206 43.2959 6.94997L43.3534 7.8187C43.1237 7.64496 42.8939 7.52913 42.7217 7.47121C42.0325 7.23955 41.2859 7.4133 41.2859 7.99245C41.2859 8.28202 41.4582 8.45577 41.8602 8.68743C42.7217 9.15075 43.1811 9.3245 43.4682 9.7299C43.8702 10.1932 43.8702 11.1778 43.2385 11.6411C42.8939 11.8728 42.4919 12.0465 41.9176 12.0465C41.2859 11.9886 40.7691 11.7569 40.5393 11.6411ZM45.306 11.8728V7.4133C44.904 7.4133 44.4445 7.47121 43.8128 7.52913L43.8702 6.77623H47.718L47.7754 7.52913C46.9714 7.4133 46.512 7.4133 46.2823 7.4133V11.8148H45.306V11.8728ZM50.3023 11.3515C51.1064 11.3515 51.7955 10.7145 51.7955 9.3245C51.7955 9.20867 51.7955 8.10828 51.1064 7.52913C50.8766 7.35538 50.6469 7.29746 50.3023 7.29746C49.2686 7.29746 48.8092 8.28203 48.8092 9.3245C48.8666 10.7145 49.5558 11.3515 50.3023 11.3515ZM50.3023 11.9886C48.8092 11.9886 47.7754 10.8882 47.7754 9.38241C47.7754 7.8187 48.8092 6.77623 50.3023 6.77623C51.7955 6.77623 52.8292 7.8187 52.8292 9.38241C52.8292 10.8882 51.7955 11.9886 50.3023 11.9886ZM53.6333 11.8728V6.83414H54.1501L57.1364 10.2511V6.83414H57.8256V11.8728H57.3087L54.3224 8.45577V11.8728H53.6333ZM60.5248 11.8728L61.0991 6.83414H61.6159L63.3963 10.367L65.1191 6.83414H65.636L66.2103 11.8728H65.1766L64.8894 8.74534L63.5111 11.6411H63.0517L61.6159 8.74534L61.3288 11.8148H60.5248V11.8728ZM68.048 10.0195H69.4838L68.7372 8.10828L68.048 10.0195ZM66.5549 11.8728L68.6798 6.83414H69.2541L71.379 11.8728H70.2878L69.8284 10.5986H67.9332L67.4163 11.8728H66.5549ZM72.6998 9.09284C72.8147 9.09284 72.987 9.15075 73.1018 9.15075C73.9059 9.15075 74.1356 8.68743 74.1356 8.28202C74.1356 7.64496 73.6761 7.4133 73.1018 7.4133C72.987 7.4133 72.8721 7.4133 72.7573 7.4133V9.09284H72.6998ZM71.781 11.8728V6.89206C72.0681 6.83414 72.4127 6.83414 72.9296 6.83414C73.389 6.83414 73.791 6.89206 74.0781 7.00789C74.5376 7.18163 75.1119 7.52913 75.1119 8.28202C75.1119 8.5716 74.997 8.86118 74.8247 9.15075C74.6524 9.38241 74.3653 9.55616 74.0207 9.67199L75.801 11.9307H74.6524L73.1018 9.78782H72.7573V11.9307H71.781V11.8728ZM76.9496 11.8728V7.4133C76.5476 7.4133 76.0882 7.47121 75.4565 7.52913L75.5139 6.77623H79.3617L79.4191 7.52913C78.6151 7.4133 78.1556 7.4133 77.9259 7.4133V11.8148H76.9496V11.8728ZM80.0508 6.83414H81.0271V11.8728H80.0508V6.83414ZM82.0034 11.8728V6.83414H82.5203L85.5066 10.2511V6.83414H86.1958V11.8728H85.6789L82.6926 8.45577V11.8728H82.0034Z" fill="white"/>
<path d="M121.862 0.926642C121.517 0.34749 120.886 0 120.139 0H70.9219C70.1179 0 68.8545 -4.14242e-07 67.5336 1.33205C67.1316 1.73746 66.8444 2.20078 66.6721 2.54827C66.2701 3.30116 65.983 3.8224 64.6047 3.8224H57.426C56.1051 3.8224 55.7606 3.30116 55.3585 2.54827C55.1288 2.14286 54.8991 1.73746 54.4971 1.33205C53.1762 -4.14242e-07 51.9128 0 51.1088 0H1.94914C1.14513 0 0.513403 0.34749 0.226255 0.926642C-0.118321 1.50579 -0.0608914 2.25869 0.341115 2.89576L1.20256 4.40155C1.66199 5.21237 2.29372 5.3282 2.75315 5.44403C3.15516 5.50194 3.44231 5.55986 3.72945 6.13901L4.53347 7.52898C5.16519 8.68728 5.85434 8.80311 6.37121 8.91894C6.77321 8.97685 7.17522 9.03477 7.69209 9.96141C8.20895 10.8881 8.95553 12.278 10.8507 12.8572C11.023 12.9151 29.1707 18.2433 29.2281 18.2433C31.1233 18.8804 31.6402 19.5753 32.2145 20.4441C32.559 20.9653 33.5353 22.3553 35.8325 22.9923L53.2911 27.7414C55.1863 28.2626 56.3348 27.336 56.9091 26.8147L60.0678 23.8031C60.5272 23.3977 60.7569 23.224 61.0441 23.224C61.3312 23.224 61.5609 23.3977 62.0204 23.8031L65.179 26.8147C65.7533 27.2781 66.9019 28.2047 68.797 27.7414L86.2556 22.9923C88.6102 22.3553 89.5291 20.9653 89.8736 20.4441C90.4479 19.5753 90.9648 18.8224 92.86 18.2433C92.86 18.2433 111.008 12.9151 111.237 12.8572C113.075 12.278 113.879 10.8881 114.396 9.96141C114.913 9.03477 115.257 8.97685 115.659 8.91894C116.176 8.80311 116.923 8.68728 117.555 7.52898L118.359 6.13901C118.703 5.55986 118.933 5.50194 119.335 5.44403C119.794 5.3282 120.426 5.21237 120.886 4.40155L121.747 2.89576C122.149 2.20078 122.206 1.50579 121.862 0.926642ZM88.2656 4.98071V13.668H33.8225V4.98071H88.2656ZM68.7396 26.4672C67.4187 26.4672 66.9593 25.3089 66.6147 24.3823C66.2127 23.3398 64.0878 16.5058 63.4561 14.6525H66.1553C67.591 17.1429 70.2328 21.5445 71.3814 23.3977C71.6111 23.7452 72.1854 24.7298 73.2191 25.3669C69.0842 26.4672 69.199 26.4672 68.7396 26.4672ZM75.1143 24.7298C73.6211 24.7298 72.8171 23.5715 72.3577 22.8186C71.3814 21.2549 69.1416 17.4904 67.4762 14.6525H70.4625C72.3577 16.6796 76.3203 20.9074 77.8709 22.529C78.1006 22.7607 78.6175 23.2819 79.3641 23.7452C75.6886 24.6719 75.6886 24.7298 75.1143 24.7298ZM81.2018 23.0502C80.0532 23.0502 79.1918 22.2394 78.6175 21.6603C77.2392 20.2703 73.9657 16.7954 71.9557 14.5946H75.2291C77.2966 16.1583 82.0632 19.6912 83.9584 20.9653C84.303 21.197 84.9921 21.6024 85.7962 21.8919C81.5464 23.0502 81.6612 23.0502 81.2018 23.0502ZM88.8973 19.807C88.3805 20.6178 87.9785 21.0232 87.0596 21.0232C86.1982 21.0232 85.3367 20.6178 84.5901 20.0966C83.0395 18.9962 79.4215 16.39 77.1243 14.6525H81.0295C85.7962 17.0271 87.8062 18.1275 89.1271 18.5329C89.3568 18.5908 89.5865 18.6487 89.8162 18.7066C89.4142 18.9962 89.1845 19.4016 88.8973 19.807ZM90.3331 17.5483C89.2419 17.5483 87.8062 16.7954 83.4415 14.5946H87.6913L93.664 16.1004C94.066 16.2163 94.468 16.2742 94.8126 16.39C91.4242 17.4325 90.9074 17.5483 90.3331 17.5483ZM101.934 14.3051C98.4306 15.3475 97.8563 15.5792 96.88 15.5792C96.1909 15.5792 95.3294 15.4634 93.8937 15.0579L89.1845 13.8417V12.1622L101.934 14.3051ZM105.609 13.2626C104.461 13.5522 103.427 13.4363 101.819 13.1467L89.2994 11.0618V9.72975L109.802 12.0464L105.609 13.2626ZM113.305 9.38226C113.133 9.67184 112.96 9.96141 112.788 10.1931C112.099 11.1776 111.639 11.1197 109.457 10.8881L89.1845 8.57145V7.29731L112.558 8.68728C112.731 8.68728 113.19 8.74519 113.707 8.74519C113.592 8.91894 113.42 9.1506 113.305 9.38226ZM117.267 5.50194C117.267 5.50194 116.808 6.25484 116.636 6.66025C115.947 7.76064 115.602 7.76063 113.649 7.58689L89.2419 6.13901V5.09654H117.555C117.44 5.27028 117.382 5.38611 117.267 5.50194ZM120.771 2.25869L120.139 3.35908C119.68 4.05406 119.507 4.05406 118.014 4.05406H67.189C67.7059 3.417 67.8782 2.77993 68.4525 2.20078C69.4288 1.21622 70.2328 1.21622 70.9794 1.21622H120.196C120.541 1.21622 120.771 1.33205 120.886 1.50579C120.943 1.67954 120.943 1.96912 120.771 2.25869ZM55.8754 26.1777C56.1051 25.8881 56.2774 25.4827 56.5646 24.7877C56.9666 23.7452 59.2063 16.6217 59.838 14.6525H62.3075C62.9392 16.6796 65.179 23.7452 65.581 24.7877C65.8107 25.4827 66.0404 25.8881 66.2701 26.1777C66.2127 26.1198 66.0979 26.0618 66.0404 26.0039L62.8818 22.9923C62.3649 22.529 61.8481 22.0657 61.1015 22.0657C60.3549 22.0657 59.7806 22.529 59.3212 22.9923L56.1626 26.0039C56.0477 26.0618 55.9328 26.1198 55.8754 26.1777ZM48.869 25.3089C49.9027 24.6719 50.5345 23.6873 50.7068 23.3398C51.8553 21.5445 54.4971 17.085 55.9328 14.5946H58.632C58.0577 16.4479 55.8754 23.2819 55.4734 24.3244C55.1288 25.251 54.6694 26.4093 53.3485 26.4093C52.8891 26.4672 53.0039 26.4672 48.869 25.3089ZM42.7815 23.6873C43.5281 23.2819 44.0449 22.7607 44.2747 22.4711C45.8253 20.9074 49.8453 16.6217 51.6831 14.5946H54.6694C53.0039 17.4325 50.7642 21.197 49.7879 22.7607C49.3284 23.5136 48.5244 24.6719 47.0313 24.6719C46.457 24.7298 46.3995 24.6719 42.7815 23.6873ZM36.3494 21.8919C37.1534 21.6603 37.8426 21.197 38.1871 20.9653C40.0823 19.6912 44.8489 16.1583 46.9164 14.5946H50.1899C48.1799 16.7954 44.9064 20.2703 43.5281 21.6603C42.9538 22.2394 42.1498 23.0502 40.9437 23.0502C40.4843 23.0502 40.5417 23.0502 36.3494 21.8919ZM32.3293 18.6487C32.559 18.5908 32.7888 18.5908 33.0185 18.4749C34.3968 18.0695 36.4068 17.0271 41.116 14.5946H45.0212C42.6666 16.3321 39.106 18.9383 37.5554 20.0387C36.8663 20.5599 35.9474 20.9653 35.0859 20.9653C34.1671 20.9653 33.7651 20.5599 33.2482 19.7491C32.961 19.4016 32.6739 18.9962 32.3293 18.6487ZM27.333 16.4479C27.6775 16.39 28.0795 16.2742 28.4816 16.1583L34.4542 14.6525H38.704C34.3394 16.8533 32.9036 17.6062 31.8125 17.6062C31.1807 17.5483 30.6639 17.4325 27.333 16.4479ZM32.9036 12.1622V13.8417L28.1944 15.0579C26.7587 15.4054 25.8972 15.5792 25.2081 15.5792C24.2318 15.5792 23.6575 15.3475 20.1543 14.3051L32.9036 12.1622ZM12.4013 12.0464L32.9036 9.72975V11.0618L20.384 13.1467C18.7185 13.4363 17.6848 13.5522 16.5937 13.2626L12.4013 12.0464ZM8.38124 8.74519C8.84068 8.68728 9.35754 8.68728 9.52983 8.68728L32.9036 7.29731V8.57145L12.631 10.8881C10.4487 11.1197 9.98927 11.1776 9.30011 10.1931C9.12782 9.96141 8.95553 9.67184 8.78325 9.38226C8.66839 9.1506 8.55353 8.91894 8.38124 8.74519ZM4.5909 5.15445H32.9036V6.19693L8.4961 7.64481C6.5435 7.76064 6.19892 7.81855 5.50977 6.71816C5.28005 6.31276 4.87804 5.55986 4.87804 5.55986C4.76318 5.38611 4.64833 5.27028 4.5909 5.15445ZM1.25999 1.50579C1.37485 1.33205 1.60456 1.21622 1.94914 1.21622H51.1662C51.9128 1.21622 52.7742 1.21622 53.6931 2.20078C54.2674 2.77993 54.4397 3.417 54.9565 4.05406H4.13146C2.63829 4.05406 2.46601 4.05406 2.00657 3.35908L1.37484 2.25869C1.20256 1.96912 1.14513 1.67954 1.25999 1.50579Z" fill="white"/>
<path d="M29.4401 45.3536C29.4401 44.7392 29.4345 44.1527 29.4233 43.5941C29.4121 43.0244 29.3954 42.4658 29.373 41.9184C29.8646 41.8737 30.3561 41.8402 30.8477 41.8179C31.3392 41.7955 31.8475 41.7843 32.3726 41.7843C33.836 41.7843 35.1263 42.0245 36.2434 42.5049C37.3717 42.9741 38.2543 43.6611 38.8911 44.566C39.539 45.4597 39.863 46.5489 39.863 47.8336C39.863 49.0848 39.5613 50.1629 38.9581 51.0677C38.3548 51.9615 37.4946 52.6485 36.3775 53.1289C35.2715 53.6092 33.9421 53.8494 32.3893 53.8494C31.8643 53.8494 31.3504 53.8382 30.8477 53.8159C30.3561 53.7936 29.8646 53.76 29.373 53.7154C29.3954 53.1568 29.4121 52.5982 29.4233 52.0397C29.4345 51.4811 29.4401 50.8946 29.4401 50.2802V45.3536ZM37.6175 47.9342C37.6175 46.8394 37.4053 45.9457 36.9807 45.253C36.5562 44.5493 35.9697 44.0298 35.2213 43.6946C34.4839 43.3483 33.6349 43.1752 32.6742 43.1752C32.3167 43.1752 31.9425 43.1975 31.5515 43.2422V52.3916C31.9313 52.4362 32.3167 52.4586 32.7077 52.4586C33.6573 52.4586 34.5007 52.3078 35.238 52.0061C35.9753 51.7045 36.5562 51.2241 36.9807 50.565C37.4053 49.8948 37.6175 49.0178 37.6175 47.9342Z" fill="white"/>
<path d="M46.0148 54.0002C45.0429 54.0002 44.1994 53.8159 43.4845 53.4472C42.7807 53.0674 42.2333 52.5368 41.8423 51.8553C41.4624 51.1627 41.2725 50.3528 41.2725 49.4256C41.2725 48.5207 41.4513 47.7275 41.8087 47.0461C42.1662 46.3534 42.6634 45.8172 43.3001 45.4374C43.9481 45.0464 44.7021 44.8509 45.5623 44.8509C46.8582 44.8509 47.8245 45.2754 48.4613 46.1244C49.0981 46.9734 49.4164 48.2023 49.4164 49.811H43.4174C43.518 50.7382 43.8252 51.4364 44.3391 51.9056C44.8641 52.3636 45.54 52.5926 46.3667 52.5926C46.8917 52.5926 47.3777 52.5033 47.8245 52.3245C48.2714 52.1458 48.6736 51.9 49.031 51.5872L48.83 53.3802C48.4613 53.5813 48.0256 53.7321 47.5229 53.8327C47.0314 53.9444 46.5286 54.0002 46.0148 54.0002ZM47.2548 48.5709C47.2101 47.7666 47.0314 47.1634 46.7186 46.7612C46.4058 46.359 45.9813 46.1579 45.445 46.1579C44.8641 46.1579 44.3949 46.3758 44.0374 46.8115C43.6911 47.2471 43.4845 47.8336 43.4174 48.5709H47.2548Z" fill="white"/>
<path d="M53.3144 54.0002C52.4766 54.0002 51.8119 53.7936 51.3203 53.3802C50.8288 52.9669 50.583 52.4027 50.583 51.6878C50.583 50.8164 50.9517 50.1294 51.689 49.6266C52.4375 49.1128 53.5379 48.7329 54.9901 48.4872L55.9788 48.3028C55.9229 47.5655 55.7442 47.0405 55.4426 46.7277C55.1409 46.4037 54.6885 46.2417 54.0853 46.2417C53.6272 46.2417 53.1692 46.3311 52.7112 46.5098C52.2643 46.6886 51.7616 46.9567 51.203 47.3142L51.3874 45.4541C51.8454 45.2642 52.3202 45.119 52.8117 45.0184C53.3033 44.9067 53.806 44.8509 54.3199 44.8509C55.5264 44.8509 56.4424 45.1581 57.068 45.7725C57.7048 46.3758 58.0232 47.2583 58.0232 48.4201V50.7996C58.0232 51.4029 58.0455 51.9224 58.0902 52.358C58.146 52.7937 58.241 53.2741 58.3751 53.7991H56.5318C56.4648 53.5869 56.3977 53.3746 56.3307 53.1624C56.2748 52.939 56.219 52.6988 56.1631 52.4418H56.0961C55.5152 53.4808 54.588 54.0002 53.3144 54.0002ZM55.4426 51.8386C55.8112 51.3247 55.9956 50.6321 55.9956 49.7607V49.5429L55.1242 49.7104C54.2417 49.8668 53.6105 50.0847 53.2306 50.364C52.862 50.6321 52.6777 50.9784 52.6777 51.4029C52.6777 51.7939 52.795 52.0955 53.0296 52.3078C53.2642 52.5089 53.5714 52.6094 53.9512 52.6094C54.5768 52.6094 55.0739 52.3525 55.4426 51.8386Z" fill="white"/>
<path d="M60.3 44.8509C60.3 44.1694 60.2944 43.5773 60.2833 43.0746C60.2721 42.5719 60.2553 42.0134 60.233 41.3989H62.4114C62.3891 42.0134 62.3723 42.5719 62.3611 43.0746C62.35 43.5773 62.3444 44.1694 62.3444 44.8509V50.3472C62.3444 51.0286 62.35 51.6207 62.3611 52.1234C62.3723 52.615 62.3891 53.1736 62.4114 53.7991H60.233C60.2553 53.1736 60.2721 52.615 60.2833 52.1234C60.2944 51.6207 60.3 51.0286 60.3 50.3472V44.8509Z" fill="white"/>
<path d="M68.8921 54.0002C67.9202 54.0002 67.0767 53.8159 66.3618 53.4472C65.658 53.0674 65.1106 52.5368 64.7196 51.8553C64.3397 51.1627 64.1498 50.3528 64.1498 49.4256C64.1498 48.5207 64.3286 47.7275 64.6861 47.0461C65.0435 46.3534 65.5407 45.8172 66.1774 45.4374C66.8254 45.0464 67.5794 44.8509 68.4396 44.8509C69.7355 44.8509 70.7018 45.2754 71.3386 46.1244C71.9754 46.9734 72.2938 48.2023 72.2938 49.811H66.2947C66.3953 50.7382 66.7025 51.4364 67.2164 51.9056C67.7414 52.3636 68.4173 52.5926 69.244 52.5926C69.769 52.5926 70.255 52.5033 70.7018 52.3245C71.1487 52.1458 71.5509 51.9 71.9083 51.5872L71.7073 53.3802C71.3386 53.5813 70.9029 53.7321 70.4002 53.8327C69.9087 53.9444 69.406 54.0002 68.8921 54.0002ZM70.1321 48.5709C70.0874 47.7666 69.9087 47.1634 69.5959 46.7612C69.2831 46.359 68.8586 46.1579 68.3223 46.1579C67.7414 46.1579 67.2722 46.3758 66.9147 46.8115C66.5684 47.2471 66.3618 47.8336 66.2947 48.5709H70.1321Z" fill="white"/>
<path d="M79.7084 47.0963C79.295 46.8506 78.8482 46.7277 78.3678 46.7277C77.6975 46.7277 77.1613 46.9511 76.7591 47.398C76.357 47.8448 76.1559 48.4313 76.1559 49.1574V50.3472C76.1559 51.0286 76.1615 51.6207 76.1726 52.1234C76.1838 52.615 76.2006 53.1736 76.2229 53.7991H74.0445C74.0668 53.1736 74.0836 52.615 74.0947 52.1234C74.1059 51.6207 74.1115 51.0286 74.1115 50.3472V48.5039C74.1115 47.8783 74.1003 47.303 74.078 46.7779C74.0668 46.2417 74.0445 45.6664 74.011 45.052H75.8207L76.0218 46.7277H76.1056C76.396 46.1356 76.7815 45.6831 77.2618 45.3703C77.7422 45.0464 78.2896 44.8844 78.904 44.8844C79.1275 44.8844 79.3285 44.9012 79.5073 44.9347L79.7084 47.0963Z" fill="white"/>
<path d="M94.301 53.7991H91.6702C91.4244 53.3523 91.1898 52.9334 90.9664 52.5424C90.7429 52.1514 90.5027 51.7548 90.2458 51.3526C90 50.9393 89.7152 50.4868 89.3912 49.9953L88.7544 49.0234L88.1847 49.9618C87.8719 50.4868 87.5926 50.9504 87.3468 51.3526C87.1122 51.7548 86.8888 52.1458 86.6765 52.5256C86.4643 52.9054 86.2297 53.3299 85.9728 53.7991H83.7943L87.8328 47.8169L83.8949 41.8346H86.509C86.9111 42.5719 87.2798 43.2199 87.6149 43.7784C87.9501 44.3258 88.3132 44.8956 88.7042 45.4876L89.1733 46.225L89.8101 45.2866C90.2011 44.7168 90.5642 44.1527 90.8993 43.5941C91.2456 43.0355 91.5975 42.449 91.955 41.8346H94.0664L90.0615 47.4315L94.301 53.7991Z" fill="white"/>
</svg>
