<svg width="130" height="68" viewBox="0 0 130 68" fill="none" xmlns="http://www.w3.org/2000/svg">
<g clip-path="url(#clip0_6750_2700)">
<mask id="mask0_6750_2700" style="mask-type:luminance" maskUnits="userSpaceOnUse" x="0" y="0" width="130" height="68">
<path d="M130 0H0V68H130V0Z" fill="white"/>
</mask>
<g mask="url(#mask0_6750_2700)">
<path d="M39.2748 16.8872H40.7973L40.0056 14.8605L39.2748 16.8872ZM37.6914 18.8525L39.9447 13.5094H40.5537L42.807 18.8525H41.6499L41.1627 17.5014H39.153L38.6049 18.8525H37.6914ZM42.9897 18.6068L42.9288 17.6242C43.416 18.0541 43.9642 18.2998 44.5123 18.2998C44.8168 18.2998 45.0604 18.2383 45.2431 18.1155C45.5476 17.8699 45.5476 17.4399 45.304 17.1943C45.1213 16.9486 44.7559 16.8258 43.9641 16.4573C43.2333 16.0888 42.8679 15.5975 42.8679 14.9219C42.8679 14.492 43.0506 14.1235 43.3551 13.8164C44.025 13.2023 45.1822 13.4479 45.304 13.4479C45.5476 13.5094 45.7303 13.5708 45.913 13.6322L45.9739 14.5534C45.7303 14.3692 45.4867 14.2463 45.304 14.1849C44.5732 13.9393 43.7814 14.1235 43.7814 14.7377C43.7814 15.0447 43.9641 15.229 44.3905 15.4747C45.304 15.966 45.7912 16.1502 46.0957 16.5801C46.522 17.0715 46.522 18.1155 45.8521 18.6068C45.4867 18.8525 45.0604 19.0367 44.4513 19.0367C43.7814 18.9753 43.2333 18.7297 42.9897 18.6068ZM48.0445 18.8525V14.1235C47.6182 14.1235 47.131 14.1849 46.4611 14.2463L46.522 13.4479H50.6023L50.6632 14.2463C49.8106 14.1235 49.3234 14.1235 49.0798 14.1235V18.7911H48.0445V18.8525ZM53.3428 18.2998C54.1954 18.2998 54.9262 17.6242 54.9262 16.1502C54.9262 16.0274 54.9262 14.8605 54.1954 14.2463C53.9518 14.0621 53.7082 14.0007 53.3428 14.0007C52.2466 14.0007 51.7594 15.0447 51.7594 16.1502C51.8203 17.6242 52.5511 18.2998 53.3428 18.2998ZM53.3428 18.9753C51.7594 18.9753 50.6632 17.8084 50.6632 16.2116C50.6632 14.5534 51.7594 13.4479 53.3428 13.4479C54.9262 13.4479 56.0224 14.5534 56.0224 16.2116C56.0224 17.8084 54.9262 18.9753 53.3428 18.9753ZM56.875 18.8525V13.5094H57.4231L60.59 17.1329V13.5094H61.3208V18.8525H60.7727L57.6058 15.229V18.8525H56.875ZM64.1831 18.8525L64.7921 13.5094H65.3402L67.2281 17.2557L69.0551 13.5094H69.6032L70.2122 18.8525H69.116L68.8115 15.5361L67.3499 18.6068H66.8627L65.3402 15.5361L65.0357 18.7911H64.1831V18.8525ZM72.161 16.8872H73.6835L72.8918 14.8605L72.161 16.8872ZM70.5776 18.8525L72.8309 13.5094H73.4399L75.6933 18.8525H74.5362L74.0489 17.5014H72.0392L71.4911 18.8525H70.5776ZM77.094 15.9046C77.2158 15.9046 77.3985 15.966 77.5203 15.966C78.3729 15.966 78.6165 15.4747 78.6165 15.0447C78.6165 14.3692 78.1293 14.1235 77.5203 14.1235C77.3985 14.1235 77.2767 14.1235 77.1549 14.1235V15.9046H77.094ZM76.1196 18.8525V13.5708C76.4241 13.5094 76.7895 13.5094 77.3376 13.5094C77.8248 13.5094 78.2511 13.5708 78.5556 13.6936C79.0428 13.8778 79.6518 14.2463 79.6518 15.0447C79.6518 15.3518 79.53 15.6589 79.3473 15.966C79.1646 16.2116 78.8601 16.3959 78.4947 16.5187L80.3826 18.9139H79.1646L77.5203 16.6415H77.1549V18.9139H76.1196V18.8525ZM81.6006 18.8525V14.1235C81.1743 14.1235 80.6871 14.1849 80.0172 14.2463L80.0781 13.4479H84.1584L84.2193 14.2463C83.3667 14.1235 82.8795 14.1235 82.6359 14.1235V18.7911H81.6006V18.8525ZM84.8892 13.5094H85.9245V18.8525H84.8892V13.5094ZM86.9598 18.8525V13.5094H87.5079L90.6748 17.1329V13.5094H91.4056V18.8525H90.8575L87.6906 15.229V18.8525H86.9598Z" fill="#121212"/>
<path d="M129.227 7.24437C128.862 6.63021 128.192 6.26172 127.4 6.26172H75.2083C74.3557 6.26172 73.0159 6.26172 71.6152 7.67427C71.1889 8.10418 70.8844 8.59551 70.7017 8.964C70.2754 9.7624 69.9709 10.3151 68.5093 10.3151H60.8967C59.496 10.3151 59.1306 9.7624 58.7043 8.964C58.4607 8.53409 58.2171 8.10418 57.7908 7.67427C56.3901 6.26172 55.0503 6.26172 54.1977 6.26172H2.06694C1.21434 6.26172 0.544432 6.63021 0.23993 7.24437C-0.125472 7.85852 -0.0645718 8.65692 0.361731 9.33249L1.27524 10.9293C1.76244 11.7891 2.43235 11.9119 2.91955 12.0348C3.34585 12.0962 3.65035 12.1576 3.95486 12.7718L4.80746 14.2457C5.47736 15.474 6.20817 15.5969 6.75627 15.7197C7.18258 15.7811 7.60888 15.8425 8.15698 16.8252C8.70509 17.8078 9.49679 19.2818 11.5065 19.896C11.6892 19.9574 30.9337 25.6076 30.9946 25.6076C33.0043 26.2832 33.5524 27.0202 34.1615 27.9414C34.5269 28.4941 35.5622 29.9681 37.9982 30.6437L56.5119 35.6797C58.5216 36.2325 59.7396 35.2498 60.3486 34.6971L63.6981 31.5035C64.1854 31.0736 64.429 30.8893 64.7335 30.8893C65.038 30.8893 65.2816 31.0736 65.7688 31.5035L69.1183 34.6971C69.7273 35.1884 70.9453 36.1711 72.955 35.6797L91.4687 30.6437C93.9656 29.9681 94.94 28.4941 95.3054 27.9414C95.9145 27.0202 96.4626 26.2217 98.4723 25.6076C98.4723 25.6076 117.717 19.9574 117.96 19.896C119.909 19.2818 120.762 17.8078 121.31 16.8252C121.858 15.8425 122.223 15.7811 122.65 15.7197C123.198 15.5969 123.99 15.474 124.659 14.2457L125.512 12.7718C125.877 12.1576 126.121 12.0962 126.547 12.0348C127.035 11.9119 127.704 11.7891 128.192 10.9293L129.105 9.33249C129.531 8.59551 129.592 7.85852 129.227 7.24437ZM93.6002 11.5434V20.7558H35.8667V11.5434H93.6002ZM72.8941 34.3286C71.4934 34.3286 71.0062 33.1003 70.6408 32.1176C70.2145 31.0122 67.9612 23.7651 67.2913 21.7998H70.1536C71.6761 24.4407 74.4775 29.1083 75.6955 31.0736C75.9391 31.4421 76.5481 32.4861 77.6443 33.1617C73.2595 34.3286 73.3813 34.3286 72.8941 34.3286ZM79.654 32.4861C78.0706 32.4861 77.218 31.2578 76.7308 30.4594C75.6955 28.8012 73.3204 24.8092 71.5543 21.7998H74.7211C76.7308 23.9494 80.933 28.4327 82.5773 30.1523C82.8209 30.398 83.369 30.9507 84.1607 31.4421C80.263 32.4247 80.2631 32.4861 79.654 32.4861ZM86.1095 30.7051C84.8915 30.7051 83.978 29.8453 83.369 29.2311C81.9074 27.7571 78.436 24.0722 76.3045 21.7384H79.7758C81.9683 23.3966 87.023 27.143 89.0327 28.4941C89.3981 28.7398 90.1289 29.1697 90.9815 29.4768C86.4749 30.7051 86.5967 30.7051 86.1095 30.7051ZM94.2701 27.2658C93.722 28.1256 93.2957 28.5555 92.3213 28.5555C91.4078 28.5555 90.4943 28.1256 89.7026 27.5729C88.0583 26.406 84.2216 23.6423 81.7856 21.7998H85.9268C90.9815 24.3179 93.113 25.4848 94.5137 25.9147C94.7573 25.9761 95.001 26.0375 95.2446 26.0989C94.8183 26.406 94.5746 26.8359 94.2701 27.2658ZM95.7927 24.8706C94.6355 24.8706 93.113 24.0722 88.4846 21.7384H92.9912L99.3249 23.3352C99.7512 23.4581 100.177 23.5195 100.543 23.6423C96.9498 24.7478 96.4017 24.8706 95.7927 24.8706ZM108.095 21.4313C104.38 22.5368 103.771 22.7825 102.735 22.7825C102.004 22.7825 101.091 22.6596 99.5685 22.2297L94.5746 20.94V19.159L108.095 21.4313ZM111.992 20.3259C110.774 20.6329 109.678 20.5101 107.973 20.203L94.6964 17.9921V16.5795L116.438 19.0361L111.992 20.3259ZM120.153 16.211C119.97 16.5181 119.787 16.8252 119.605 17.0708C118.874 18.1149 118.387 18.0535 116.072 17.8078L94.5746 15.3512V14.0001L119.361 15.474C119.544 15.474 120.031 15.5355 120.579 15.5355C120.457 15.7197 120.275 15.9654 120.153 16.211ZM124.355 12.0962C124.355 12.0962 123.868 12.8946 123.685 13.3245C122.954 14.4914 122.589 14.4914 120.518 14.3071L94.6356 12.7718V11.6663H124.659C124.538 11.8505 124.477 11.9734 124.355 12.0962ZM128.07 8.65692L127.4 9.82382C126.913 10.5608 126.73 10.5608 125.147 10.5608H71.2498C71.7979 9.88523 71.9806 9.20966 72.5896 8.59551C73.6249 7.55144 74.4775 7.55144 75.2692 7.55144H127.461C127.826 7.55144 128.07 7.67427 128.192 7.85852C128.253 8.04277 128.253 8.34984 128.07 8.65692ZM59.2524 34.0215C59.496 33.7144 59.6787 33.2845 59.9832 32.5475C60.4095 31.4421 62.7846 23.888 63.4545 21.7998H66.0733C66.7432 23.9494 69.1183 31.4421 69.5446 32.5475C69.7882 33.2845 70.0318 33.7144 70.2754 34.0215C70.2145 33.9601 70.0927 33.8987 70.0318 33.8373L66.6823 30.6437C66.1342 30.1523 65.5861 29.661 64.7944 29.661C64.0027 29.661 63.3936 30.1523 62.9064 30.6437L59.5569 33.8373C59.4351 33.8987 59.3133 33.9601 59.2524 34.0215ZM51.8226 33.1003C52.9188 32.4247 53.5887 31.3807 53.7714 31.0122C54.9894 29.1083 57.7908 24.3793 59.3133 21.7384H62.1756C61.5666 23.7037 59.2524 30.9507 58.8261 32.0562C58.4607 33.0389 57.9735 34.2672 56.5728 34.2672C56.0856 34.3286 56.2074 34.3286 51.8226 33.1003ZM45.3671 31.3806C46.1588 30.9507 46.7069 30.398 46.9505 30.0909C48.5948 28.4327 52.8579 23.888 54.8067 21.7384H57.9735C56.2074 24.7478 53.8323 28.7398 52.797 30.398C52.3098 31.1964 51.4572 32.4247 49.8738 32.4247C49.2648 32.4861 49.2038 32.4247 45.3671 31.3806ZM38.5463 29.4768C39.3989 29.2311 40.1297 28.7398 40.4951 28.4941C42.5048 27.143 47.5595 23.3966 49.752 21.7384H53.2233C51.0918 24.0722 47.6204 27.7571 46.1588 29.2311C45.5498 29.8453 44.6972 30.7051 43.4183 30.7051C42.9311 30.7051 42.992 30.7051 38.5463 29.4768ZM34.2833 26.0375C34.5269 25.9761 34.7705 25.9761 35.0141 25.8533C36.4757 25.4233 38.6072 24.3179 43.601 21.7384H47.7422C45.2453 23.5809 41.4695 26.3446 39.8252 27.5115C39.0944 28.0642 38.12 28.4941 37.2065 28.4941C36.2321 28.4941 35.8058 28.0642 35.2577 27.2044C34.9532 26.8359 34.6487 26.406 34.2833 26.0375ZM28.9849 23.7037C29.3503 23.6423 29.7766 23.5195 30.2029 23.3966L36.5366 21.7998H41.0432C36.4148 24.1336 34.8923 24.932 33.7351 24.932C33.0652 24.8706 32.5171 24.7478 28.9849 23.7037ZM34.8923 19.159V20.94L29.8984 22.2297C28.3759 22.5982 27.4624 22.7825 26.7316 22.7825C25.6963 22.7825 25.0873 22.5368 21.3724 21.4313L34.8923 19.159ZM13.1508 19.0361L34.8923 16.5795V17.9921L21.616 20.203C19.8499 20.5101 18.7536 20.6329 17.5965 20.3259L13.1508 19.0361ZM8.88779 15.5355C9.37499 15.474 9.9231 15.474 10.1058 15.474L34.8923 14.0001V15.3512L13.3944 17.8078C11.0802 18.0535 10.593 18.1149 9.86219 17.0708C9.67949 16.8252 9.49679 16.5181 9.31409 16.211C9.19229 15.9654 9.07049 15.7197 8.88779 15.5355ZM4.86836 11.7277H34.8923V12.8332L9.00959 14.3686C6.93897 14.4914 6.57357 14.5528 5.84277 13.3859C5.59917 12.956 5.17286 12.1576 5.17286 12.1576C5.05106 11.9734 4.92926 11.8505 4.86836 11.7277ZM1.33614 7.85852C1.45794 7.67427 1.70154 7.55144 2.06694 7.55144H54.2586C55.0503 7.55144 55.9638 7.55144 56.9382 8.59551C57.5472 9.20966 57.7299 9.88523 58.278 10.5608H4.38116C2.79775 10.5608 2.61505 10.5608 2.12784 9.82382L1.45794 8.65692C1.27524 8.34984 1.21434 8.04277 1.33614 7.85852Z" fill="#121212"/>
<path d="M31.2205 54.3553C31.2205 53.7037 31.2146 53.0818 31.2027 52.4895C31.1909 51.8853 31.1731 51.293 31.1494 50.7125C31.6707 50.6651 32.1919 50.6295 32.7132 50.6059C33.2344 50.5822 33.7734 50.5703 34.3302 50.5703C35.8821 50.5703 37.2504 50.825 38.435 51.3344C39.6315 51.832 40.5674 52.5605 41.2427 53.5201C41.9298 54.4678 42.2733 55.6229 42.2733 56.9852C42.2733 58.312 41.9535 59.4552 41.3138 60.4148C40.674 61.3625 39.7619 62.0911 38.5772 62.6005C37.4044 63.1099 35.9947 63.3646 34.348 63.3646C33.7912 63.3646 33.2463 63.3527 32.7132 63.329C32.1919 63.3054 31.6707 63.2698 31.1494 63.2224C31.1731 62.6301 31.1909 62.0378 31.2027 61.4454C31.2146 60.8531 31.2205 60.2312 31.2205 59.5796V54.3553ZM39.8922 57.0918C39.8922 55.9309 39.6671 54.9832 39.2169 54.2487C38.7667 53.5023 38.1448 52.9515 37.3511 52.5961C36.5692 52.2288 35.6689 52.0452 34.6501 52.0452C34.271 52.0452 33.8741 52.0689 33.4595 52.1163V61.8186C33.8623 61.866 34.271 61.8897 34.6856 61.8897C35.6926 61.8897 36.587 61.7298 37.3689 61.4099C38.1507 61.09 38.7667 60.5806 39.2169 59.8817C39.6671 59.1709 39.8922 58.241 39.8922 57.0918Z" fill="#121212"/>
<path d="M48.7974 63.5246C47.7668 63.5246 46.8724 63.3291 46.1142 62.9382C45.3679 62.5354 44.7874 61.9727 44.3727 61.2501C43.97 60.5156 43.7686 59.6567 43.7686 58.6735C43.7686 57.7139 43.9581 56.8728 44.3372 56.1501C44.7163 55.4157 45.2435 54.847 45.9187 54.4442C46.6058 54.0296 47.4055 53.8223 48.3176 53.8223C49.6918 53.8223 50.7166 54.2725 51.3918 55.1728C52.0671 56.0731 52.4047 57.3763 52.4047 59.0822H46.0431C46.1497 60.0654 46.4755 60.8058 47.0204 61.3034C47.5772 61.7891 48.2939 62.0319 49.1706 62.0319C49.7274 62.0319 50.2427 61.9372 50.7166 61.7476C51.1904 61.5581 51.6169 61.2975 51.996 60.9658L51.7828 62.8671C51.3918 63.0804 50.9298 63.2403 50.3967 63.3469C49.8755 63.4654 49.3424 63.5246 48.7974 63.5246ZM50.1124 57.7672C50.065 56.9142 49.8755 56.2745 49.5438 55.8481C49.2121 55.4216 48.7619 55.2083 48.1933 55.2083C47.5772 55.2083 47.0797 55.4393 46.7006 55.9014C46.3333 56.3634 46.1142 56.9853 46.0431 57.7672H50.1124Z" fill="#121212"/>
<path d="M56.5381 63.5246C55.6496 63.5246 54.9447 63.3055 54.4235 62.8671C53.9022 62.4288 53.6416 61.8306 53.6416 61.0724C53.6416 60.1483 54.0325 59.4198 54.8144 58.8867C55.6081 58.3417 56.775 57.939 58.315 57.6783L59.3635 57.4829C59.3042 56.701 59.1147 56.1442 58.7948 55.8125C58.475 55.469 57.9952 55.2972 57.3555 55.2972C56.8698 55.2972 56.3841 55.392 55.8984 55.5815C55.4245 55.771 54.8914 56.0554 54.2991 56.4345L54.4945 54.462C54.9802 54.2606 55.4837 54.1066 56.005 54C56.5262 53.8815 57.0593 53.8223 57.6043 53.8223C58.8837 53.8223 59.8551 54.1481 60.5185 54.7996C61.1938 55.4393 61.5314 56.3752 61.5314 57.6073V60.1306C61.5314 60.7703 61.5551 61.3212 61.6025 61.7832C61.6617 62.2452 61.7624 62.7546 61.9046 63.3114H59.9499C59.8788 63.0863 59.8077 62.8612 59.7366 62.6361C59.6774 62.3992 59.6182 62.1445 59.5589 61.872H59.4879C58.8718 62.9737 57.8886 63.5246 56.5381 63.5246ZM58.7948 61.2323C59.1858 60.6874 59.3812 59.9529 59.3812 59.0288V58.7978L58.4572 58.9755C57.5213 59.1414 56.852 59.3724 56.4492 59.6686C56.0583 59.9529 55.8628 60.3201 55.8628 60.7703C55.8628 61.1849 55.9872 61.5048 56.236 61.7299C56.4848 61.9431 56.8105 62.0497 57.2133 62.0497C57.8767 62.0497 58.4039 61.7772 58.7948 61.2323Z" fill="#121212"/>
<path d="M63.9451 53.8227C63.9451 53.1001 63.9391 52.4722 63.9273 51.9391C63.9154 51.406 63.8977 50.8137 63.874 50.1621H66.1841C66.1604 50.8137 66.1426 51.406 66.1307 51.9391C66.1189 52.4722 66.113 53.1001 66.113 53.8227V59.6512C66.113 60.3738 66.1189 61.0017 66.1307 61.5348C66.1426 62.056 66.1604 62.6484 66.1841 63.3118H63.874C63.8977 62.6484 63.9154 62.056 63.9273 61.5348C63.9391 61.0017 63.9451 60.3738 63.9451 59.6512V53.8227Z" fill="#121212"/>
<path d="M73.0572 63.5246C72.0265 63.5246 71.1321 63.3291 70.374 62.9382C69.6276 62.5354 69.0471 61.9727 68.6325 61.2501C68.2297 60.5156 68.0283 59.6567 68.0283 58.6735C68.0283 57.7139 68.2179 56.8728 68.597 56.1501C68.9761 55.4157 69.5032 54.847 70.1785 54.4442C70.8656 54.0296 71.6652 53.8223 72.5774 53.8223C73.9516 53.8223 74.9763 54.2725 75.6516 55.1728C76.3268 56.0731 76.6645 57.3763 76.6645 59.0822H70.3029C70.4095 60.0654 70.7353 60.8058 71.2802 61.3034C71.837 61.7891 72.5537 62.0319 73.4304 62.0319C73.9872 62.0319 74.5025 61.9372 74.9763 61.7476C75.4502 61.5581 75.8767 61.2975 76.2558 60.9658L76.0425 62.8671C75.6516 63.0804 75.1896 63.2403 74.6565 63.3469C74.1352 63.4654 73.6021 63.5246 73.0572 63.5246ZM74.3722 57.7672C74.3248 56.9142 74.1352 56.2745 73.8035 55.8481C73.4718 55.4216 73.0217 55.2083 72.453 55.2083C71.837 55.2083 71.3394 55.4393 70.9604 55.9014C70.5931 56.3634 70.374 56.9853 70.3029 57.7672H74.3722Z" fill="#121212"/>
<path d="M84.5271 56.204C84.0888 55.9434 83.6149 55.8131 83.1055 55.8131C82.3947 55.8131 81.8261 56.05 81.3996 56.5239C80.9731 56.9978 80.7598 57.6197 80.7598 58.3897V59.6514C80.7598 60.374 80.7657 61.0019 80.7776 61.535C80.7894 62.0562 80.8073 62.6486 80.831 63.312H78.5209C78.5446 62.6486 78.5624 62.0562 78.5742 61.535C78.5861 61.0019 78.5919 60.374 78.5919 59.6514V57.6967C78.5919 57.0333 78.5801 56.4232 78.5564 55.8664C78.5446 55.2978 78.5209 54.6877 78.4854 54.0361H80.4044L80.6177 55.8131H80.7066C81.0146 55.1852 81.4233 54.7055 81.9327 54.3738C82.4421 54.0302 83.0225 53.8584 83.674 53.8584C83.911 53.8584 84.1243 53.8762 84.3139 53.9117L84.5271 56.204Z" fill="#121212"/>
<path d="M100.002 63.3117H97.2112C96.9506 62.8378 96.7018 62.3936 96.4649 61.9789C96.228 61.5643 95.9733 61.1438 95.7008 60.7173C95.4402 60.279 95.1381 59.7992 94.7945 59.2779L94.1193 58.2473L93.5151 59.2424C93.1834 59.7992 92.8872 60.2908 92.6266 60.7173C92.3778 61.1438 92.1409 61.5584 91.9158 61.9612C91.6907 62.364 91.442 62.8141 91.1695 63.3117H88.8594L93.142 56.9679L88.966 50.624H91.7381C92.1646 51.4059 92.5555 52.093 92.9109 52.6853C93.2663 53.2658 93.6514 53.87 94.066 54.4978L94.5635 55.2797L95.2388 54.2846C95.6534 53.6804 96.0384 53.0822 96.3938 52.4899C96.7611 51.8975 97.1342 51.2756 97.5133 50.624H99.7523L95.5053 56.5591L100.002 63.3117Z" fill="#121212"/>
</g>
</g>
<defs>
<clipPath id="clip0_6750_2700">
<rect width="130" height="68" fill="white"/>
</clipPath>
</defs>
</svg>
