<svg width="32" height="32" viewBox="0 0 32 32" fill="none" xmlns="http://www.w3.org/2000/svg">
<path d="M22 4H7.2C6.0799 4 5.51984 4 5.09202 4.21799C4.71569 4.40973 4.40973 4.71569 4.21799 5.09202C4 5.51984 4 6.0799 4 7.2V24.8C4 25.9201 4 26.4802 4.21799 26.908C4.40973 27.2843 4.71569 27.5903 5.09202 27.782C5.51984 28 6.0799 28 7.2 28H24.8C25.9201 28 26.4802 28 26.908 27.782C27.2843 27.5903 27.5903 27.2843 27.782 26.908C28 26.4802 28 25.9201 28 24.8V15" stroke="#00665E" stroke-width="1.5" stroke-linecap="round" stroke-linejoin="round"/>
<path d="M12 14.6663L16 18.6663L29.3333 5.33301" stroke="#00665E" stroke-width="1.5" stroke-linecap="round" stroke-linejoin="round"/>
</svg>
