<svg width="24" height="24" viewBox="0 0 24 24" fill="none" xmlns="http://www.w3.org/2000/svg">
<path d="M12.3375 4.6875C14.8125 4.6875 15.15 4.6875 16.1625 4.6875C17.0625 4.6875 17.5125 4.9125 17.85 5.025C18.3 5.25 18.6375 5.3625 18.975 5.7C19.3125 6.0375 19.5375 6.375 19.65 6.825C19.7625 7.1625 19.875 7.6125 19.9875 8.5125C19.9875 9.525 19.9875 9.75 19.9875 12.3375C19.9875 14.925 19.9875 15.15 19.9875 16.1625C19.9875 17.0625 19.7625 17.5125 19.65 17.85C19.425 18.3 19.3125 18.6375 18.975 18.975C18.6375 19.3125 18.3 19.5375 17.85 19.65C17.5125 19.7625 17.0625 19.875 16.1625 19.9875C15.15 19.9875 14.925 19.9875 12.3375 19.9875C9.75 19.9875 9.525 19.9875 8.5125 19.9875C7.6125 19.9875 7.1625 19.7625 6.825 19.65C6.375 19.425 6.0375 19.3125 5.7 18.975C5.3625 18.6375 5.1375 18.3 5.025 17.85C4.9125 17.5125 4.8 17.0625 4.6875 16.1625C4.6875 15.15 4.6875 14.925 4.6875 12.3375C4.6875 9.75 4.6875 9.525 4.6875 8.5125C4.6875 7.6125 4.9125 7.1625 5.025 6.825C5.25 6.375 5.3625 6.0375 5.7 5.7C6.0375 5.3625 6.375 5.1375 6.825 5.025C7.1625 4.9125 7.6125 4.8 8.5125 4.6875C9.525 4.6875 9.8625 4.6875 12.3375 4.6875ZM12.3375 3C9.75 3 9.525 3 8.5125 3C7.5 3 6.825 3.225 6.2625 3.45C5.7 3.675 5.1375 4.0125 4.575 4.575C4.0125 5.1375 3.7875 5.5875 3.45 6.2625C3.225 6.825 3.1125 7.5 3 8.5125C3 9.525 3 9.8625 3 12.3375C3 14.925 3 15.15 3 16.1625C3 17.175 3.225 17.85 3.45 18.4125C3.675 18.975 4.0125 19.5375 4.575 20.1C5.1375 20.6625 5.5875 20.8875 6.2625 21.225C6.825 21.45 7.5 21.5625 8.5125 21.675C9.525 21.675 9.8625 21.675 12.3375 21.675C14.8125 21.675 15.15 21.675 16.1625 21.675C17.175 21.675 17.85 21.45 18.4125 21.225C18.975 21 19.5375 20.6625 20.1 20.1C20.6625 19.5375 20.8875 19.0875 21.225 18.4125C21.45 17.85 21.5625 17.175 21.675 16.1625C21.675 15.15 21.675 14.8125 21.675 12.3375C21.675 9.8625 21.675 9.525 21.675 8.5125C21.675 7.5 21.45 6.825 21.225 6.2625C21 5.7 20.6625 5.1375 20.1 4.575C19.5375 4.0125 19.0875 3.7875 18.4125 3.45C17.85 3.225 17.175 3.1125 16.1625 3C15.15 3 14.925 3 12.3375 3Z" fill="white"/>
<path d="M12.3375 7.5C9.6375 7.5 7.5 9.6375 7.5 12.3375C7.5 15.0375 9.6375 17.175 12.3375 17.175C15.0375 17.175 17.175 15.0375 17.175 12.3375C17.175 9.6375 15.0375 7.5 12.3375 7.5ZM12.3375 15.4875C10.65 15.4875 9.1875 14.1375 9.1875 12.3375C9.1875 10.65 10.5375 9.1875 12.3375 9.1875C14.025 9.1875 15.4875 10.5375 15.4875 12.3375C15.4875 14.025 14.025 15.4875 12.3375 15.4875Z" fill="white"/>
<path d="M17.2875 8.5125C17.9088 8.5125 18.4125 8.00882 18.4125 7.3875C18.4125 6.76618 17.9088 6.2625 17.2875 6.2625C16.6662 6.2625 16.1625 6.76618 16.1625 7.3875C16.1625 8.00882 16.6662 8.5125 17.2875 8.5125Z" fill="white"/>
</svg>
