<svg width="16" height="17" viewBox="0 0 16 17" fill="none" xmlns="http://www.w3.org/2000/svg">
<path fill-rule="evenodd" clip-rule="evenodd" d="M7.875 0.947266C8.30993 0.947266 8.6625 1.29984 8.6625 1.73477V8.03477H14.9625C15.3974 8.03477 15.75 8.38734 15.75 8.82227C15.75 9.25719 15.3974 9.60977 14.9625 9.60977H8.6625V15.9098C8.6625 16.3447 8.30993 16.6973 7.875 16.6973C7.44008 16.6973 7.0875 16.3447 7.0875 15.9098V9.60977H0.7875C0.352576 9.60977 0 9.25719 0 8.82227C0 8.38734 0.352576 8.03477 0.7875 8.03477H7.0875V1.73477C7.0875 1.29984 7.44008 0.947266 7.875 0.947266Z" fill="#7D7E7E"/>
</svg>
