<svg width="26" height="26" viewBox="0 0 26 26" fill="none" xmlns="http://www.w3.org/2000/svg">
<path fill-rule="evenodd" clip-rule="evenodd" d="M1.74902 13C1.74902 6.7868 6.78582 1.75 12.999 1.75C19.2122 1.75 24.249 6.7868 24.249 13C24.249 19.2132 19.2122 24.25 12.999 24.25C6.78582 24.25 1.74902 19.2132 1.74902 13ZM12.999 0.25C5.95739 0.25 0.249023 5.95837 0.249023 13C0.249023 20.0416 5.95739 25.75 12.999 25.75C20.0407 25.75 25.749 20.0416 25.749 13C25.749 5.95837 20.0407 0.25 12.999 0.25ZM13.0001 18.8665C16.2401 18.8665 18.8667 16.2399 18.8667 12.9999C18.8667 9.7598 16.2401 7.1332 13.0001 7.1332C9.75999 7.1332 7.1334 9.7598 7.1334 12.9999C7.1334 16.2399 9.75999 18.8665 13.0001 18.8665Z" fill="white"/>
</svg>
