<svg width="26" height="26" viewBox="0 0 26 26" fill="none" xmlns="http://www.w3.org/2000/svg">
<path fill-rule="evenodd" clip-rule="evenodd" d="M1.99902 13C1.99902 6.92487 6.92389 2 12.999 2C19.0742 2 23.999 6.92487 23.999 13C23.999 19.0751 19.0742 24 12.999 24C6.92389 24 1.99902 19.0751 1.99902 13ZM12.999 0C5.81932 0 -0.000976562 5.8203 -0.000976562 13C-0.000976562 20.1797 5.81932 26 12.999 26C20.1787 26 25.999 20.1797 25.999 13C25.999 5.8203 20.1787 0 12.999 0ZM13.0001 18.8665C16.2401 18.8665 18.8667 16.2399 18.8667 12.9999C18.8667 9.7598 16.2401 7.1332 13.0001 7.1332C9.75999 7.1332 7.1334 9.7598 7.1334 12.9999C7.1334 16.2399 9.75999 18.8665 13.0001 18.8665Z" fill="#00665E"/>
</svg>
