<svg width="16" height="16" viewBox="0 0 16 16" fill="none" xmlns="http://www.w3.org/2000/svg">
<g clip-path="url(#clip0_960_88602)">
<path d="M14.1363 15.197C14.4292 15.4899 14.9041 15.4899 15.197 15.197C15.4899 14.9041 15.4899 14.4292 15.197 14.1363L14.1363 15.197ZM12.5833 7.33331C12.5833 10.2328 10.2328 12.5833 7.33333 12.5833V14.0833C11.0613 14.0833 14.0833 11.0612 14.0833 7.33331H12.5833ZM7.33333 12.5833C4.43383 12.5833 2.08333 10.2328 2.08333 7.33331H0.583328C0.583328 11.0612 3.60541 14.0833 7.33333 14.0833V12.5833ZM2.08333 7.33331C2.08333 4.43382 4.43383 2.08331 7.33333 2.08331V0.583313C3.60541 0.583313 0.583328 3.60539 0.583328 7.33331H2.08333ZM7.33333 2.08331C10.2328 2.08331 12.5833 4.43382 12.5833 7.33331H14.0833C14.0833 3.60539 11.0613 0.583313 7.33333 0.583313V2.08331ZM15.197 14.1363L11.8637 10.803L10.803 11.8636L14.1363 15.197L15.197 14.1363Z" fill="white"/>
</g>
<defs>
<clipPath id="clip0_960_88602">
<rect width="16" height="16" fill="white"/>
</clipPath>
</defs>
</svg>
