<svg width="24" height="24" viewBox="0 0 24 24" fill="none" xmlns="http://www.w3.org/2000/svg">
<path d="M21 6.1875C20.325 6.525 19.65 6.6375 18.8625 6.75C19.65 6.3 20.2125 5.625 20.4375 4.725C19.7625 5.175 18.975 5.4 18.075 5.625C17.4 4.95 16.3875 4.5 15.375 4.5C13.0125 4.5 11.2125 6.75 11.775 9C8.7375 8.8875 6.0375 7.425 4.125 5.175C3.1125 6.8625 3.675 9 5.25 10.125C4.6875 10.125 4.125 9.9 3.5625 9.675C3.5625 11.3625 4.8 12.9375 6.4875 13.3875C5.925 13.5 5.3625 13.6125 4.8 13.5C5.25 14.9625 6.6 16.0875 8.2875 16.0875C6.9375 17.1 4.9125 17.6625 3 17.4375C4.6875 18.45 6.6 19.125 8.625 19.125C15.4875 19.125 19.3125 13.3875 19.0875 8.1C19.875 7.65 20.55 6.975 21 6.1875Z" fill="white"/>
</svg>
