<svg width="24" height="24" viewBox="0 0 24 24" fill="none" xmlns="http://www.w3.org/2000/svg">
<path d="M21.1496 7.82143C20.9246 7.07143 20.3621 6.53571 19.5746 6.32143C18.2246 6 12.4871 6 12.4871 6C12.4871 6 6.86212 6 5.39962 6.32143C4.61212 6.53571 4.04961 7.07143 3.82461 7.82143C3.59961 9.21429 3.59961 12 3.59961 12C3.59961 12 3.59961 14.7857 3.93711 16.1786C4.16211 16.9286 4.72461 17.4643 5.51211 17.6786C6.86211 18 12.5996 18 12.5996 18C12.5996 18 18.2246 18 19.6871 17.6786C20.4746 17.4643 21.0371 16.9286 21.2621 16.1786C21.5996 14.7857 21.5996 12 21.5996 12C21.5996 12 21.5996 9.21429 21.1496 7.82143ZM10.7996 14.5714V9.42857L15.5246 12L10.7996 14.5714Z" fill="white"/>
</svg>
