<svg width="124" height="30" viewBox="0 0 124 30" fill="none" xmlns="http://www.w3.org/2000/svg">
<path d="M37.9922 11.0719H39.4279L38.6814 9.16065L37.9922 11.0719ZM36.499 12.9251L38.6239 7.88652H39.1982L41.3231 12.9251H40.232L39.7725 11.651H37.8773L37.3605 12.9251H36.499ZM41.4954 12.6935L41.438 11.7668C41.8974 12.1722 42.4143 12.4039 42.9311 12.4039C43.2183 12.4039 43.448 12.346 43.6203 12.2302C43.9074 11.9985 43.9074 11.5931 43.6777 11.3614C43.5054 11.1298 43.1609 11.0139 42.4143 10.6664C41.7251 10.319 41.3805 9.85563 41.3805 9.21857C41.3805 8.81316 41.5528 8.46567 41.84 8.17609C42.4717 7.59694 43.5629 7.8286 43.6777 7.8286C43.9074 7.88652 44.0797 7.94443 44.252 8.00235L44.3094 8.87108C44.0797 8.69733 43.85 8.5815 43.6777 8.52358C42.9886 8.29192 42.242 8.46567 42.242 9.04482C42.242 9.3344 42.4143 9.50814 42.8163 9.7398C43.6777 10.2031 44.1372 10.3769 44.4243 10.7823C44.8263 11.2456 44.8263 12.2302 44.1946 12.6935C43.85 12.9252 43.448 13.0989 42.8737 13.0989C42.242 13.041 41.7251 12.8093 41.4954 12.6935ZM46.262 12.9251V8.46567C45.86 8.46567 45.4006 8.52358 44.7689 8.5815L44.8263 7.8286H48.6741L48.7315 8.5815C47.9275 8.46567 47.4681 8.46567 47.2383 8.46567V12.8672H46.262V12.9251ZM51.2584 12.4039C52.0624 12.4039 52.7516 11.7668 52.7516 10.3769C52.7516 10.261 52.7516 9.16065 52.0624 8.5815C51.8327 8.40775 51.603 8.34984 51.2584 8.34984C50.2247 8.34984 49.7652 9.3344 49.7652 10.3769C49.8227 11.7668 50.5118 12.4039 51.2584 12.4039ZM51.2584 13.041C49.7652 13.041 48.7315 11.9406 48.7315 10.4348C48.7315 8.87108 49.7652 7.8286 51.2584 7.8286C52.7516 7.8286 53.7853 8.87108 53.7853 10.4348C53.7853 11.9406 52.7516 13.041 51.2584 13.041ZM54.5893 12.9251V7.88652H55.1062L58.0925 11.3035V7.88652H58.7817V12.9251H58.2648L55.2785 9.50814V12.9251H54.5893ZM61.4809 12.9251L62.0552 7.88652H62.572L64.3523 11.4194L66.0752 7.88652H66.5921L67.1664 12.9251H66.1326L65.8455 9.79772L64.4672 12.6935H64.0078L62.572 9.79772L62.2849 12.8672H61.4809V12.9251ZM69.0041 11.0719H70.4398L69.6933 9.16065L69.0041 11.0719ZM67.511 12.9251L69.6358 7.88652H70.2101L72.335 12.9251H71.2439L70.7844 11.651H68.8893L68.3724 12.9251H67.511ZM73.6559 10.1452C73.7708 10.1452 73.9431 10.2031 74.0579 10.2031C74.8619 10.2031 75.0916 9.7398 75.0916 9.3344C75.0916 8.69733 74.6322 8.46567 74.0579 8.46567C73.9431 8.46567 73.8282 8.46567 73.7133 8.46567V10.1452H73.6559ZM72.737 12.9251V7.94443C73.0242 7.88652 73.3688 7.88652 73.8856 7.88652C74.3451 7.88652 74.7471 7.94443 75.0342 8.06026C75.4936 8.23401 76.0679 8.5815 76.0679 9.3344C76.0679 9.62397 75.9531 9.91355 75.7808 10.2031C75.6085 10.4348 75.3214 10.6085 74.9768 10.7244L76.7571 12.9831H75.6085L74.0579 10.8402H73.7133V12.9831H72.737V12.9251ZM77.9057 12.9251V8.46567C77.5037 8.46567 77.0442 8.52358 76.4125 8.5815L76.4699 7.8286H80.3177L80.3751 8.5815C79.5711 8.46567 79.1117 8.46567 78.882 8.46567V12.8672H77.9057V12.9251ZM81.0069 7.88652H81.9832V12.9251H81.0069V7.88652ZM82.9595 12.9251V7.88652H83.4763L86.4627 11.3035V7.88652H87.1518V12.9251H86.635L83.6486 9.50814V12.9251H82.9595Z" fill="#00665E"/>
<path d="M122.818 1.97889C122.473 1.39974 121.842 1.05225 121.095 1.05225H71.878C71.074 1.05225 69.8105 1.05225 68.4897 2.3843C68.0876 2.78971 67.8005 3.25303 67.6282 3.60052C67.2262 4.35341 66.9391 4.87465 65.5607 4.87465H58.3821C57.0612 4.87465 56.7166 4.35341 56.3146 3.60052C56.0849 3.19511 55.8552 2.78971 55.4532 2.3843C54.1323 1.05225 52.8688 1.05225 52.0648 1.05225H2.90519C2.10118 1.05225 1.46946 1.39974 1.18231 1.97889C0.837734 2.55804 0.895163 3.31094 1.29717 3.94801L2.15861 5.4538C2.61804 6.26462 3.24977 6.38045 3.7092 6.49628C4.11121 6.55419 4.39836 6.61211 4.68551 7.19126L5.48952 8.58123C6.12124 9.73953 6.81039 9.85536 7.32726 9.97119C7.72927 10.0291 8.13127 10.087 8.64814 11.0137C9.165 11.9403 9.91158 13.3302 11.8068 13.9094C11.9791 13.9673 30.1268 19.2955 30.1842 19.2955C32.0794 19.9326 32.5962 20.6275 33.1705 21.4963C33.5151 22.0175 34.4914 23.4075 36.7886 24.0445L54.2471 28.7936C56.1423 29.3148 57.2909 28.3882 57.8652 27.8669L61.0238 24.8553C61.4833 24.4499 61.713 24.2762 62.0001 24.2762C62.2873 24.2762 62.517 24.4499 62.9764 24.8553L66.135 27.8669C66.7093 28.3303 67.8579 29.2569 69.7531 28.7936L87.2117 24.0445C89.5663 23.4075 90.4851 22.0175 90.8297 21.4963C91.404 20.6275 91.9209 19.8746 93.816 19.2955C93.816 19.2955 111.964 13.9673 112.193 13.9094C114.031 13.3302 114.835 11.9403 115.352 11.0137C115.869 10.087 116.214 10.0291 116.616 9.97119C117.132 9.85536 117.879 9.73953 118.511 8.58123L119.315 7.19126C119.659 6.61211 119.889 6.55419 120.291 6.49628C120.75 6.38045 121.382 6.26462 121.842 5.4538L122.703 3.94801C123.105 3.25303 123.162 2.55804 122.818 1.97889ZM89.2217 6.03296V14.7202H34.7786V6.03296H89.2217ZM69.6957 27.5194C68.3748 27.5194 67.9154 26.3611 67.5708 25.4345C67.1688 24.392 65.0439 17.558 64.4122 15.7047H67.1113C68.5471 18.1951 71.1888 22.5967 72.3374 24.4499C72.5671 24.7974 73.1414 25.782 74.1752 26.4191C70.0402 27.5194 70.1551 27.5194 69.6957 27.5194ZM76.0703 25.782C74.5772 25.782 73.7732 24.6237 73.3137 23.8708C72.3374 22.3071 70.0977 18.5426 68.4322 15.7047H71.4185C73.3137 17.7318 77.2764 21.9596 78.827 23.5812C79.0567 23.8129 79.5735 24.3341 80.3201 24.7974C76.6446 25.7241 76.6446 25.782 76.0703 25.782ZM82.1579 24.1024C81.0093 24.1024 80.1478 23.2916 79.5735 22.7125C78.1952 21.3225 74.9218 17.8476 72.9117 15.6468H76.1852C78.2527 17.2105 83.0193 20.7434 84.9145 22.0175C85.259 22.2492 85.9482 22.6546 86.7522 22.9441C82.5024 24.1024 82.6173 24.1024 82.1579 24.1024ZM89.8534 20.8592C89.3365 21.67 88.9345 22.0754 88.0157 22.0754C87.1542 22.0754 86.2928 21.67 85.5462 21.1488C83.9956 20.0484 80.3775 17.4422 78.0804 15.7047H81.9856C86.7522 18.0793 88.7622 19.1797 90.0831 19.5851C90.3128 19.643 90.5426 19.7009 90.7723 19.7588C90.3703 20.0484 90.1406 20.4538 89.8534 20.8592ZM91.2891 18.6005C90.198 18.6005 88.7623 17.8476 84.3976 15.6468H88.6474L94.6201 17.1526C95.0221 17.2685 95.4241 17.3264 95.7686 17.4422C92.3803 18.4847 91.8634 18.6005 91.2891 18.6005ZM102.89 15.3573C99.3867 16.3997 98.8124 16.6314 97.8361 16.6314C97.1469 16.6314 96.2855 16.5156 94.8498 16.1101L90.1406 14.8939V13.2144L102.89 15.3573ZM106.565 14.3148C105.417 14.6044 104.383 14.4885 102.775 14.1989L90.2554 12.114V10.782L110.758 13.0986L106.565 14.3148ZM114.261 10.4345C114.089 10.7241 113.916 11.0137 113.744 11.2453C113.055 12.2298 112.595 12.1719 110.413 11.9403L90.1406 9.6237V8.34956L113.514 9.73953C113.687 9.73953 114.146 9.79744 114.663 9.79744C114.548 9.97119 114.376 10.2028 114.261 10.4345ZM118.224 6.55419C118.224 6.55419 117.764 7.30709 117.592 7.7125C116.903 8.81289 116.558 8.81288 114.606 8.63914L90.198 7.19126V6.14879H118.511C118.396 6.32253 118.338 6.43836 118.224 6.55419ZM121.727 3.31094L121.095 4.41133C120.636 5.10631 120.463 5.10631 118.97 5.10631H68.1451C68.6619 4.46925 68.8342 3.83218 69.4085 3.25303C70.3848 2.26847 71.1888 2.26847 71.9354 2.26847H121.152C121.497 2.26847 121.727 2.3843 121.842 2.55804C121.899 2.73179 121.899 3.02137 121.727 3.31094ZM56.8315 27.2299C57.0612 26.9403 57.2335 26.5349 57.5206 25.8399C57.9226 24.7974 60.1624 17.6739 60.7941 15.7047H63.2636C63.8953 17.7318 66.135 24.7974 66.537 25.8399C66.7668 26.5349 66.9965 26.9403 67.2262 27.2299C67.1688 27.172 67.0539 27.114 66.9965 27.0561L63.8379 24.0445C63.321 23.5812 62.8041 23.1179 62.0576 23.1179C61.311 23.1179 60.7367 23.5812 60.2772 24.0445L57.1186 27.0561C57.0038 27.114 56.8889 27.172 56.8315 27.2299ZM49.8251 26.3611C50.8588 25.7241 51.4905 24.7395 51.6628 24.392C52.8114 22.5967 55.4532 18.1372 56.8889 15.6468H59.5881C59.0138 17.5001 56.8315 24.3341 56.4295 25.3766C56.0849 26.3032 55.6255 27.4615 54.3046 27.4615C53.8451 27.5194 53.96 27.5194 49.8251 26.3611ZM43.7375 24.7395C44.4841 24.3341 45.001 23.8129 45.2307 23.5233C46.7813 21.9596 50.8014 17.6739 52.6391 15.6468H55.6254C53.96 18.4847 51.7202 22.2492 50.7439 23.8129C50.2845 24.5658 49.4805 25.7241 47.9873 25.7241C47.413 25.782 47.3556 25.7241 43.7375 24.7395ZM37.3054 22.9441C38.1095 22.7125 38.7986 22.2492 39.1432 22.0175C41.0384 20.7434 45.805 17.2105 47.8725 15.6468H51.146C49.1359 17.8476 45.8624 21.3225 44.4841 22.7125C43.9098 23.2916 43.1058 24.1024 41.8998 24.1024C41.4404 24.1024 41.4978 24.1024 37.3054 22.9441ZM33.2854 19.7009C33.5151 19.643 33.7448 19.643 33.9745 19.5271C35.3528 19.1217 37.3629 18.0793 42.0721 15.6468H45.9773C43.6227 17.3843 40.0621 19.9905 38.5115 21.0909C37.8223 21.6121 36.9034 22.0175 36.042 22.0175C35.1231 22.0175 34.7211 21.6121 34.2043 20.8013C33.9171 20.4538 33.63 20.0484 33.2854 19.7009ZM28.289 17.5001C28.6336 17.4422 29.0356 17.3264 29.4376 17.2105L35.4103 15.7047H39.6601C35.2954 17.9055 33.8597 18.6584 32.7685 18.6584C32.1368 18.6005 31.6199 18.4847 28.289 17.5001ZM33.8597 13.2144V14.8939L29.1505 16.1101C27.7147 16.4576 26.8533 16.6314 26.1641 16.6314C25.1878 16.6314 24.6135 16.3997 21.1103 15.3573L33.8597 13.2144ZM13.3574 13.0986L33.8597 10.782V12.114L21.3401 14.1989C19.6746 14.4885 18.6409 14.6044 17.5497 14.3148L13.3574 13.0986ZM9.33729 9.79744C9.79673 9.73953 10.3136 9.73953 10.4859 9.73953L33.8597 8.34956V9.6237L13.5871 11.9403C11.4048 12.1719 10.9453 12.2298 10.2562 11.2453C10.0839 11.0137 9.91159 10.7241 9.7393 10.4345C9.62444 10.2028 9.50958 9.97119 9.33729 9.79744ZM5.54695 6.2067H33.8597V7.24918L9.45215 8.69706C7.49955 8.81289 7.15497 8.8708 6.46582 7.77041C6.2361 7.36501 5.83409 6.61211 5.83409 6.61211C5.71924 6.43836 5.60438 6.32253 5.54695 6.2067ZM2.21604 2.55804C2.3309 2.3843 2.56061 2.26847 2.90519 2.26847H52.1223C52.8688 2.26847 53.7303 2.26847 54.6491 3.25303C55.2234 3.83218 55.3957 4.46925 55.9126 5.10631H5.08751C3.59435 5.10631 3.42206 5.10631 2.96262 4.41133L2.3309 3.31094C2.15861 3.02137 2.10118 2.73179 2.21604 2.55804Z" fill="#00665E"/>
</svg>
